<?xml version="1.0" standalone="no"?><!DOCTYPE svg PUBLIC "-//W3C//DTD SVG 1.1//EN" "http://www.w3.org/Graphics/SVG/1.1/DTD/svg11.dtd"><svg t="1623848186701" class="icon" viewBox="0 0 4016 1024" version="1.1" xmlns="http://www.w3.org/2000/svg" p-id="12902" xmlns:xlink="http://www.w3.org/1999/xlink" width="784.375" height="200"><defs><style type="text/css"></style></defs><path d="M1540.096 630.784h241.664c28.672-65.536 55.296-145.408 75.776-239.616l49.152 12.288c-20.48 86.016-43.008 161.792-71.68 227.328H1988.608V675.84H1540.096v-45.056z m16.384-307.2h182.272c-8.192-22.528-14.336-45.056-24.576-65.536l53.248-8.192c8.192 24.576 14.336 49.152 20.48 73.728H1968.128V368.64H1556.48v-45.056z m114.688 67.584c20.48 59.392 38.912 133.12 57.344 217.088l-49.152 12.288c-14.336-73.728-32.768-145.408-55.296-215.04l47.104-14.336zM2031.616 643.072c14.336-4.096 20.48-12.288 20.48-24.576V264.192h192.512v237.568h-147.456v124.928c36.864-10.24 69.632-22.528 100.352-34.816-2.048-4.096-10.24-16.384-24.576-40.96l34.816-22.528c28.672 45.056 53.248 86.016 69.632 122.88l-36.864 24.576c-4.096-10.24-12.288-24.576-22.528-45.056-53.248 22.528-110.592 40.96-172.032 55.296l-14.336-43.008z m169.984-282.624V307.2h-102.4v53.248h102.4z m-104.448 43.008v57.344h102.4v-57.344h-102.4zM2373.632 634.88l-12.288-45.056 36.864 2.048c14.336 0 20.48-6.144 20.48-20.48V309.248h-75.776v391.168H2295.808V266.24h167.936v315.392c0 34.816-16.384 53.248-51.2 53.248h-38.912zM2603.008 337.92h38.912v161.792c0 55.296-8.192 98.304-24.576 131.072-14.336 30.72-38.912 55.296-71.68 71.68l-24.576-38.912c32.768-16.384 53.248-36.864 63.488-61.44 10.24-26.624 16.384-61.44 18.432-102.4v-161.792z m106.496-73.728v129.024c28.672-40.96 49.152-90.112 59.392-147.456l45.056 6.144c-4.096 20.48-8.192 43.008-16.384 61.44h157.696c0 174.08-2.048 280.576-8.192 321.536-4.096 40.96-26.624 61.44-67.584 61.44l-71.68-2.048-10.24-40.96c32.768 2.048 57.344 2.048 75.776 2.048 16.384 0 26.624-12.288 30.72-36.864 2.048-22.528 4.096-108.544 6.144-258.048h-129.024c-14.336 28.672-30.72 55.296-49.152 79.872l-22.528-28.672v167.936h-40.96V307.2h-92.16v270.336h-40.96V264.192h174.08z m-47.104 325.632c28.672 26.624 51.2 53.248 67.584 75.776l-34.816 32.768c-14.336-24.576-34.816-49.152-63.488-79.872l30.72-28.672z m194.56-124.928c16.384 40.96 30.72 83.968 43.008 126.976l-36.864 18.432-10.24-34.816c-34.816 8.192-75.776 14.336-122.88 18.432l-8.192-40.96c16.384-8.192 36.864-61.44 65.536-159.744l43.008 14.336c-18.432 53.248-36.864 100.352-57.344 141.312 20.48-2.048 43.008-6.144 67.584-12.288-8.192-26.624-16.384-45.056-20.48-57.344l36.864-14.336zM3244.032 339.968h45.056v104.448c0 22.528-4.096 45.056-8.192 65.536h178.176v45.056h-192.512l-10.24 18.432c67.584 28.672 131.072 61.44 192.512 96.256l-32.768 36.864c-59.392-36.864-120.832-69.632-184.32-98.304l-2.048 4.096c-34.816 38.912-94.208 69.632-174.08 90.112l-26.624-40.96c81.92-20.48 137.216-47.104 167.936-79.872 6.144-8.192 12.288-16.384 16.384-24.576h-186.368V512h206.848c6.144-20.48 10.24-43.008 12.288-65.536v-106.496z m-200.704-65.536H3422.208v28.672c-8.192 28.672-16.384 57.344-28.672 86.016l-43.008-12.288c8.192-16.384 16.384-36.864 24.576-59.392h-331.776v-43.008z m26.624 126.976c36.864 14.336 69.632 32.768 102.4 53.248l-24.576 36.864c-32.768-24.576-65.536-45.056-100.352-57.344l22.528-32.768z m45.056-65.536c36.864 14.336 71.68 30.72 104.448 51.2l-24.576 36.864a385.024 385.024 0 0 0-102.4-55.296l22.528-32.768z" fill="#FF4E7D" p-id="12903"></path><path d="M3895.296 0H122.88c-67.584 0-122.88 55.296-122.88 122.88v778.24c0 67.584 55.296 122.88 122.88 122.88H3893.248c67.584 0 122.88-55.296 122.88-122.88V122.88c2.048-67.584-53.248-122.88-120.832-122.88zM561.152 253.952c0-10.24 8.192-20.48 20.48-20.48 10.24 0 20.48 8.192 20.48 20.48v18.432c0 10.24-8.192 20.48-20.48 20.48-10.24 0-20.48-8.192-20.48-20.48v-18.432z m-71.68 61.44s8.192 12.288 20.48 12.288 20.48-12.288 20.48-12.288c6.144-8.192 18.432-12.288 26.624-6.144s12.288 18.432 6.144 26.624c-8.192 10.24-26.624 30.72-53.248 30.72s-47.104-18.432-53.248-30.72c-6.144-8.192-2.048-20.48 6.144-26.624 8.192-6.144 20.48-2.048 26.624 6.144z m-67.584-61.44c0-10.24 8.192-20.48 20.48-20.48 10.24 0 20.48 8.192 20.48 20.48v18.432c0 10.24-8.192 20.48-20.48 20.48-10.24 0-20.48-8.192-20.48-20.48v-18.432zM413.696 512c-10.24 0-20.48-8.192-20.48-20.48s8.192-20.48 20.48-20.48h51.2l-43.008-40.96c-8.192-8.192-8.192-20.48 0-26.624 8.192-8.192 20.48-8.192 26.624 0l61.44 61.44 61.44-61.44c8.192-8.192 20.48-8.192 26.624 0 8.192 8.192 8.192 20.48 0 26.624L555.008 473.088h51.2c10.24 0 20.48 8.192 20.48 20.48 0 10.24-8.192 20.48-20.48 20.48h-77.824v51.2h77.824c10.24 0 20.48 8.192 20.48 20.48s-8.192 20.48-20.48 20.48h-77.824v61.44c0 10.24-8.192 20.48-20.48 20.48-10.24 0-20.48-8.192-20.48-20.48v-61.44h-77.824c-10.24 0-20.48-8.192-20.48-20.48s8.192-20.48 20.48-20.48h77.824V512h-73.728z m96.256 282.624c-153.6 0-280.576-124.928-280.576-280.576 0-92.16 47.104-180.224 122.88-231.424 8.192-6.144 20.48-4.096 26.624 6.144 6.144 8.192 4.096 20.48-6.144 26.624-65.536 45.056-106.496 118.784-106.496 198.656 0 133.12 108.544 241.664 241.664 241.664 133.12 0 241.664-108.544 241.664-241.664 0-79.872-38.912-155.648-106.496-198.656-8.192-6.144-12.288-18.432-6.144-26.624s18.432-12.288 26.624-6.144c77.824 51.2 122.88 139.264 122.88 231.424 4.096 153.6-120.832 280.576-276.48 280.576zM3975.168 870.4c-2.048 63.488-53.248 114.688-116.736 114.688H1026.048V38.912h2834.432c63.488 0 114.688 51.2 114.688 114.688v716.8z" fill="#FF4E7D" p-id="12904"></path></svg>