<?xml version="1.0" standalone="no"?><!DOCTYPE svg PUBLIC "-//W3C//DTD SVG 1.1//EN" "http://www.w3.org/Graphics/SVG/1.1/DTD/svg11.dtd"><svg t="1623861957207" class="icon" viewBox="0 0 1024 1024" version="1.1" xmlns="http://www.w3.org/2000/svg" p-id="11192" xmlns:xlink="http://www.w3.org/1999/xlink" width="32" height="32"><defs><style type="text/css"></style></defs><path d="M102.912 342.528h831.488v629.76H102.912z" fill="#E6E6E6" p-id="11193"></path><path d="M877.056 347.648h-742.4L343.04 136.192l263.68-51.2z" fill="#E6E6E6" p-id="11194"></path><path d="M969.216 357.376c0-27.136-13.312-53.248-35.328-69.12L572.928 26.112C543.744 5.12 504.832 4.608 475.136 25.088L91.648 288.256c-23.04 15.872-36.864 41.984-36.864 70.144v585.216c0 47.104 51.712 70.144 82.944 70.144h748.544c47.104 0 82.944-23.04 82.944-70.144V680.96v-3.584c0-18.944-14.848-34.816-33.792-34.816-18.432 0-33.792 15.36-33.792 34.816v3.584l5.12 270.336h-706.56c-47.104 0-82.944-1.536-82.944-82.944V390.144c0-28.16 26.112-44.032 49.664-59.904L475.648 122.88c29.184-19.456 67.584-18.944 96.256 1.536l289.792 205.824c22.528 15.872 35.84 41.984 35.84 69.632l2.048 115.2c0 18.944 15.36 34.816 34.816 34.816 18.944 0 34.816-15.36 34.816-34.816V357.376z m-447.488 444.928c112.128 0 207.872-84.992 219.648-196.608 0.512-1.536 1.024-2.56 1.024-4.096 0-8.192-6.656-14.336-14.336-14.336h-20.992c-7.68 0-14.336 6.656-14.336 14.336C680.448 686.08 608.768 752.64 522.24 752.64s-160.768-67.072-170.496-151.04c0-0.512 0.512-1.536 0.512-2.048 0-8.192-6.656-14.336-14.336-14.336h-20.992c-8.192 0-14.336 6.656-14.336 14.336 0 0.512 0.512 1.536 0.512 2.048H302.08c12.288 111.104 105.984 200.704 219.648 200.704z m229.888-327.68c0-27.136-22.016-49.664-49.664-49.664-27.136 0-49.664 22.016-49.664 49.664 0 27.136 22.016 49.664 49.664 49.664 27.648 0 49.664-22.016 49.664-49.664z m-370.688 0c0-27.648-22.016-49.664-49.664-49.664-27.136 0-49.664 22.016-49.664 49.664 0 27.136 22.016 49.664 49.664 49.664 27.648 0 49.664-22.016 49.664-49.664z" fill="#B8B8B8" p-id="11195"></path></svg>