<?xml version="1.0" standalone="no"?><!DOCTYPE svg PUBLIC "-//W3C//DTD SVG 1.1//EN" "http://www.w3.org/Graphics/SVG/1.1/DTD/svg11.dtd"><svg t="1623847496852" class="icon" viewBox="0 0 3537 1024" version="1.1" xmlns="http://www.w3.org/2000/svg" p-id="10663" xmlns:xlink="http://www.w3.org/1999/xlink" width="690.8203125" height="200"><defs><style type="text/css"></style></defs><path d="M1513.85025 678.975042l16.186356-23.853578h-30.668886l-63.041597 214.682197c-3.407654 12.778702-5.111481 23.001664-5.111481 32.372712h-1.703827c0-12.778702-1.703827-23.001664-4.259567-32.372712l-53.670549-214.682197h-30.668885l74.116472 268.352746h29.816972l65.597338-214.682197c1.703827-14.482529 3.407654-23.853577 3.407654-29.816971z m-12.778703-24.705491h28.113145l58.78203 214.682196c3.407654 12.778702 5.111481 23.001664 5.111481 32.372712h1.703827c0-4.259567 0.851913-12.778702 2.55574-23.853577 0.851913-3.407654 1.703827-5.963394 1.703827-7.667221l55.374376-214.682197h32.372713l-76.672213 268.352746h-29.816972l-63.041598-214.682197c-1.703827-11.074875-2.55574-20.445923-2.55574-29.816971h-1.703827l-11.926789-24.705491z m255.574044 155.900166h116.712146c-1.703827-39.18802-21.297837-59.633943-57.930116-61.33777-36.63228 3.407654-56.22629 23.853577-58.78203 61.33777z m116.712146 51.114809l29.816972 7.667221c-11.074875 39.18802-39.18802 58.78203-86.043261 57.930117-59.633943-2.55574-91.154742-35.780366-92.858569-98.821964 2.55574-67.301165 33.224626-102.229617 91.154742-104.785358 57.078203 1.703827 86.895175 36.63228 88.599001 104.785358v6.815308H1754.941764c1.703827 43.447587 22.14975 67.301165 60.485857 69.856905 30.668885-0.851913 49.410982-15.334443 57.930116-43.447587z m217.237937-71.560732l28.113145-9.371049c-11.074875-37.484193-37.484193-57.078203-80.079867-57.930116-55.374376 2.55574-84.339434 37.484193-86.043261 103.081531 0.851913 65.597338 29.816972 98.821963 86.895174 100.52579 47.707155 1.703827 74.968386-20.445923 81.783694-67.301165l-29.816972-6.815307c-2.55574 34.076539-19.59401 51.114809-51.114808 51.114808-38.336106 0-57.930116-25.557404-57.930117-77.524126 0-52.818636 19.59401-79.227953 57.930117-79.227954 25.557404 2.55574 42.595674 17.03827 50.262895 43.447588z m239.387687 6.815307v124.379368H2300.166389v-120.971714c0-36.63228-14.482529-55.374376-44.2995-55.374376-34.928453 4.259567-53.670549 23.001664-56.22629 56.22629v120.971714h-29.816972v-268.352746h29.816972v102.229618c15.334443-22.14975 35.780366-34.076539 63.041597-34.928453 45.151414 0 68.153078 24.705491 67.301165 75.820299z m195.9401 49.410982v-25.557404c-3.407654 6.815308-23.001664 11.926789-57.930117 14.482529-35.780366 4.259567-52.818636 17.03827-51.966722 37.484193 0.851913 19.59401 15.334443 29.816972 44.299501 29.816972 40.039933-2.55574 62.189684-21.297837 65.597338-56.22629z m-106.489185-58.78203l-28.113145-7.667221c9.371048-40.039933 39.18802-59.633943 86.895175-57.930117 52.818636-0.851913 78.37604 23.853577 76.672213 74.968386v79.227954c-0.851913 21.297837 2.55574 36.63228 11.074875 46.003328h-28.113144c-5.963394-6.815308-9.371048-16.186356-9.371049-26.409318-16.186356 21.297837-41.74376 32.372712-76.672213 32.372712-40.891847-1.703827-63.041597-18.742097-65.597337-51.114809 0.851913-37.484193 24.705491-58.78203 70.708818-63.041597 37.484193-3.407654 60.485857-8.519135 68.153078-14.482529 2.55574-35.780366-13.630616-52.818636-48.559068-51.114809-33.224626-2.55574-51.966722 11.074875-57.078203 39.18802z m275.168053 118.415974l5.111481 14.482529c-8.519135 3.407654-18.742097 5.111481-29.816971 5.111481-28.113145 0.851913-40.891847-13.630616-40.039934-42.595674V751.387687h-26.409318v-23.853577h26.409318V674.715474l28.113145-14.482529v67.301165h36.632279v23.853577H2657.97005v131.194676c-0.851913 17.03827 5.963394 24.705491 21.297837 23.853577 5.963394 0 11.074875 0 15.334442-0.851913zM2930.582363 681.530782H2852.206323v105.637271H2930.582363c42.595674-0.851913 64.745424-19.59401 65.597337-55.374376-1.703827-32.372712-23.853577-49.410982-65.597337-50.262895z m5.111481 132.898503H2852.206323v109.044925H2822.389351v-268.352746h115.00832c54.522463 2.55574 84.339434 28.965058 90.302828 79.227954 0 51.966722-31.520799 79.227953-92.006655 80.079867z m280.279534 31.520798v-25.557404c-3.407654 6.815308-23.001664 11.926789-57.930117 14.482529-35.780366 4.259567-52.818636 17.03827-51.966722 37.484193 0.851913 19.59401 15.334443 29.816972 44.299501 29.816972 40.039933-2.55574 62.189684-21.297837 65.597338-56.22629z m-105.637272-58.78203l-28.113144-7.667221c9.371048-40.039933 39.18802-59.633943 86.895174-57.930117 52.818636-0.851913 78.37604 23.853577 76.672213 74.968386v79.227954c-0.851913 21.297837 2.55574 36.63228 11.074876 46.003328H3228.75208c-5.963394-6.815308-9.371048-16.186356-9.371048-26.409318-16.186356 21.297837-41.74376 32.372712-76.672213 32.372712-40.891847-1.703827-63.041597-18.742097-65.597338-51.114809 0.851913-37.484193 24.705491-58.78203 70.708819-63.041597 37.484193-3.407654 60.485857-8.519135 68.153078-14.482529 2.55574-35.780366-13.630616-52.818636-48.559069-51.114809-33.224626-2.55574-52.818636 11.074875-57.078203 39.18802z m364.618969-60.485857h-30.668885l-55.374376 149.936772c-2.55574 4.259567-4.259567 8.519135-4.259568 13.630616h-1.703827c0-0.851913-0.851913-4.259567-2.55574-11.074875-0.851913-2.55574-1.703827-4.259567-1.703827-5.111481-1.703827-3.407654-19.59401-52.818636-51.966722-147.381032h-32.372712l74.968386 187.420965c-4.259567 11.926789-7.667221 20.445923-11.074876 27.261232-7.667221 17.890183-19.59401 26.409318-33.224625 25.557404-6.815308 0-13.630616-0.851913-18.742097-2.55574l-4.259567 17.038269c7.667221 4.259567 17.03827 6.815308 28.113145 7.667221 26.409318 4.259567 46.855241-13.630616 60.485857-55.374376 9.371048-17.890183 37.484193-86.895175 84.339434-207.014975zM1707.234609 313.50416c12.778702-41.74376 20.445923-88.599002 21.297837-140.565724h-40.891847v1.703827c2.55574 51.966722 9.371048 97.97005 19.59401 138.861897z m-274.31614-22.149751v-49.410981h181.457571v49.410981h-181.457571z m202.755408 112.452579c0 4.259567 0.851913 11.074875 2.55574 19.59401v19.59401c12.778702-17.03827 25.557404-34.928453 36.63228-51.966722-14.482529-41.74376-23.853577-86.895175-28.113145-136.306156-2.55574 2.55574-6.815308 7.667221-11.074875 15.334442-1.703827 2.55574-2.55574 5.111481-4.259568 6.815308-5.963394-18.742097-14.482529-37.484193-25.557404-56.226289 2.55574-4.259567 5.111481-7.667221 6.815308-11.074876H1439.733777c-12.778702 20.445923-25.557404 39.18802-36.632279 56.22629v261.537438h-60.485857v-181.457571c-2.55574 2.55574-7.667221 8.519135-15.334443 17.038269l-17.03827 17.03827c-4.259567-20.445923-11.926789-43.447587-23.853577-71.560732 39.18802-44.299501 73.264559-92.858569 103.933444-144.825291l39.18802 28.113144v-112.452579c-31.520799 43.447587-66.449251 82.635607-103.933444 118.415974-1.703827-2.55574-4.259567-7.667221-8.519135-12.778702-5.963394-12.778702-15.334443-28.113145-28.113144-45.151415 35.780366-34.928453 69.004992-72.412646 99.673876-114.156406l53.670549 36.63228c-4.259567 2.55574-6.815308 6.815308-8.519134 11.074875h45.151414v88.599002h19.59401v-132.046589h51.966722v132.046589h19.59401v-87.747088h49.410982v120.971713c21.297837-44.299501 39.18802-101.377704 53.670549-170.382695l60.485857 12.778702c-5.963394 25.557404-12.778702 50.262895-21.297837 73.264559h91.154742v63.041597h-17.03827c-4.259567 83.487521-18.742097 155.900166-43.447587 218.089851 17.03827 25.557404 38.336106 48.559068 63.041597 67.301164-14.482529 27.261231-23.853577 50.262895-28.113144 69.004992-25.557404-21.297837-48.559068-45.151414-67.301165-71.560732-18.742097 27.261231-40.039933 51.966722-64.745424 73.264559-8.519135-18.742097-17.03827-36.63228-25.557405-53.670549-21.297837 16.186356-40.039933 29.816972-56.226289 43.447587l-28.113145-39.18802c6.815308-8.519135 11.074875-17.890183 11.074875-28.113144V376.545757h-47.707155c2.55574 67.301165-15.334443 117.56406-53.670549 149.084859-8.519135-12.778702-21.297837-27.261231-39.18802-43.447588 25.557404-20.445923 39.18802-50.262895 39.18802-91.154742v-21.297837c1.703827-18.742097 2.55574-34.076539 2.555741-45.151414h153.344426v105.637271c1.703827 0 2.55574-1.703827 4.259567-4.259567 3.407654-5.111481 14.482529-11.926789 29.816972-22.149751z m640.638935 40.891847v-49.410981h-167.826955v49.410981h167.826955z m71.560732-192.532446v53.670549h-308.392679v-53.670549h308.392679z m0-81.783693v56.226289h-308.392679v-56.226289h308.392679z m29.816972-86.043262v57.930117h-360.359401v-57.930117H2155.341098c-1.703827-2.55574-2.55574-6.815308-4.259567-11.074875-2.55574-8.519135-8.519135-20.445923-17.03827-36.632279l77.524127-12.778703c8.519135 14.482529 17.890183 34.928453 28.113144 60.485857h138.009984z m-420.845258-58.78203c-27.261231 102.229617-57.930116 183.161398-90.302829 243.647255 1.703827 8.519135 3.407654 21.297837 6.815308 39.18802 5.963394 27.261231 9.371048 46.855241 11.074875 57.930116 11.926789-20.445923 23.853577-40.891847 36.63228-63.041597v222.349418h64.745424v-367.174709c12.778702-35.780366 25.557404-74.116473 39.18802-114.156406l-68.153078-18.742097z m151.640599 500.925125h-69.004992V333.950083h308.392679v192.532446h-71.560732v-25.557404h-167.826955v25.557404z m590.37604-153.344426c37.484193-27.261231 69.004992-60.485857 94.562396-99.673877h-196.792013c29.816972 39.18802 63.893511 72.412646 102.229617 99.673877z m39.18802-164.419301h144.825291v60.485857c-27.261231 50.262895-65.597338 97.97005-114.156406 142.269551 51.966722 21.297837 112.452579 35.780366 181.457571 43.447587-14.482529 21.297837-28.113145 45.151414-40.891847 71.560732-77.524126-11.926789-147.381032-34.076539-209.570716-67.301165-66.449251 33.224626-138.009983 56.22629-215.53411 69.004992-12.778702-25.557404-26.409318-47.707155-40.891846-64.745424 73.264559-8.519135 136.306156-25.557404 189.976705-51.966722-35.780366-30.668885-69.004992-67.301165-99.673877-109.896839l45.151415-28.113145H2496.106489v-64.745424h164.419301v-57.930116h-202.755407v-63.041598h202.755407v-64.745424h77.524127v64.745424H2939.101498v63.041598h-201.051581v57.930116z m460.885191 46.003328l53.670549-36.63228c5.963394 8.519135 14.482529 20.445923 25.557405 34.928453 16.186356 20.445923 38.336106 50.262895 67.301164 90.302828l-60.485857 39.18802c-25.557404-43.447587-53.670549-86.043261-86.043261-127.787021z m-73.264559-233.424293l67.301165 17.038269c-11.926789 33.224626-23.853577 64.745424-36.63228 95.41431v391.028286h-71.560732v-254.72213c-12.778702 21.297837-27.261231 43.447587-43.447587 64.745425-1.703827-6.815308-4.259567-19.59401-8.519135-36.63228-5.963394-24.705491-10.222962-44.299501-12.778702-57.930116 46.003328-72.412646 80.93178-145.677205 105.637271-218.941764z m54.522463 166.123128h209.570715v226.608985c0 25.557404-11.926789 39.18802-34.928452 39.18802-24.705491 0-49.410982-1.703827-75.8203-4.259567h-6.815308c8.519135 24.705491 14.482529 46.855241 17.03827 67.301164v6.815308c14.482529 0 34.928453-0.851913 60.485857-2.55574H3390.615641c46.003328 0 69.004992-27.261231 69.004991-81.783694v-250.462562h71.560732v-69.004992h-71.560732v-90.302829h-71.560732v90.302829H3180.193012v68.153078z" fill="#231815" p-id="10664"></path><path d="M158.455907 0h702.828619c86.043261 0 155.900166 69.856905 155.900166 155.900166v709.643927c0 86.043261-69.856905 155.900166-155.900166 155.900167h-702.828619c-86.043261 0-155.900166-69.856905-155.900167-155.900167v-709.643927c0-86.043261 69.856905-155.900166 155.900167-155.900166z" fill="#44AF35" p-id="10665"></path><path d="M345.024958 163.567388c12.778702-1.703827 26.409318-2.55574 39.18802-2.555741h3.407654c13.630616 0 26.409318 0.851913 40.039934 2.555741l15.334442 2.55574c4.259567 0.851913 8.519135 1.703827 11.926789 2.555741l10.222962 2.55574c3.407654 0.851913 5.963394 1.703827 9.371048 2.55574 2.55574 0.851913 5.111481 1.703827 8.519135 2.555741l7.667221 2.55574c2.55574 0.851913 4.259567 1.703827 6.815308 2.555741 2.55574 0.851913 4.259567 1.703827 6.815308 2.55574 1.703827 0.851913 4.259567 1.703827 5.963394 2.555741 1.703827 0.851913 3.407654 1.703827 5.963394 2.55574l5.111481 2.55574 5.111481 2.555741 5.111481 2.55574 5.111481 2.555741c1.703827 0.851913 3.407654 1.703827 4.259567 2.55574 1.703827 0.851913 2.55574 1.703827 4.259568 2.555741 1.703827 0.851913 2.55574 1.703827 4.259567 2.55574 1.703827 0.851913 2.55574 1.703827 4.259567 2.55574 1.703827 0.851913 2.55574 1.703827 4.259568 2.555741 1.703827 0.851913 2.55574 1.703827 3.407654 2.55574 0.851913 0.851913 2.55574 1.703827 3.407654 2.555741 0.851913 0.851913 2.55574 1.703827 3.407654 2.55574 0.851913 0.851913 2.55574 1.703827 3.407653 2.555741 0.851913 0.851913 2.55574 1.703827 3.407654 2.55574 0.851913 0.851913 2.55574 1.703827 3.407654 2.555741 0.851913 0.851913 2.55574 1.703827 3.407654 2.55574 0.851913 0.851913 1.703827 1.703827 3.407654 2.55574 0.851913 0.851913 1.703827 1.703827 3.407654 2.555741 0.851913 0.851913 1.703827 1.703827 3.407654 2.55574l2.55574 2.555741 2.555741 2.55574 2.55574 2.555741 2.555741 2.55574 2.55574 2.55574 2.55574 2.555741 2.555741 2.55574 2.55574 2.555741 2.555741 2.55574 2.55574 2.555741 2.555741 2.55574 2.55574 2.55574 2.555741 2.555741 2.55574 2.55574c0.851913 0.851913 1.703827 1.703827 1.703827 2.555741 0.851913 0.851913 1.703827 1.703827 1.703827 2.55574 0.851913 0.851913 1.703827 1.703827 1.703827 2.555741 0.851913 0.851913 1.703827 1.703827 1.703827 2.55574 0.851913 0.851913 1.703827 1.703827 1.703827 2.55574 0.851913 0.851913 0.851913 1.703827 1.703827 2.555741 0.851913 0.851913 0.851913 1.703827 1.703827 2.55574 0.851913 0.851913 0.851913 1.703827 1.703827 2.555741 0.851913 0.851913 0.851913 1.703827 1.703827 2.55574 0.851913 0.851913 0.851913 1.703827 1.703826 2.555741 0.851913 0.851913 0.851913 1.703827 1.703827 2.55574 0.851913 0.851913 0.851913 1.703827 1.703827 2.55574 0.851913 0.851913 0.851913 1.703827 1.703827 2.555741 0.851913 0.851913 0.851913 1.703827 1.703827 2.55574 0.851913 0.851913 0.851913 1.703827 1.703827 2.555741 0.851913 0.851913 0.851913 1.703827 1.703827 2.55574 0.851913 0.851913 0.851913 1.703827 1.703827 2.555741 0.851913 0.851913 0.851913 1.703827 1.703827 2.55574 0.851913 0.851913 0.851913 1.703827 1.703827 2.555741 0.851913 0.851913 0.851913 1.703827 1.703827 2.55574 0.851913 0.851913 0.851913 1.703827 1.703827 2.55574 0.851913 0.851913 0.851913 1.703827 1.703827 2.555741 0.851913 0.851913 0.851913 1.703827 1.703827 2.55574 0.851913 0.851913 0.851913 1.703827 0.851913 2.555741 0 0.851913 0.851913 1.703827 0.851914 2.55574 0 0.851913 0.851913 1.703827 0.851913 2.555741 0 0.851913 0.851913 1.703827 0.851914 2.55574 0 0.851913 0.851913 1.703827 0.851913 2.55574 0 0.851913 0.851913 1.703827 0.851914 2.555741 0 0.851913 0.851913 1.703827 0.851913 2.55574 0 0.851913 0.851913 1.703827 0.851914 2.555741 0 0.851913 0.851913 1.703827 0.851913 2.55574 0 0.851913 0.851913 1.703827 0.851914 2.555741 0 0.851913 0.851913 1.703827 0.851913 2.55574 0 0.851913 0.851913 1.703827 0.851914 2.55574 0 0.851913 0.851913 1.703827 0.851913 2.555741 0 0.851913 0.851913 1.703827 0.851914 2.55574 0 0.851913 0.851913 1.703827 0.851913 2.555741 0 0.851913 0.851913 1.703827 0.851914 2.55574 0 0.851913 0.851913 1.703827 0.851913 2.555741 0 0.851913 0.851913 1.703827 0.851914 2.55574 0 0.851913 0.851913 1.703827 0.851913 2.55574 0 0.851913 0.851913 1.703827 0.851913 2.555741 0 0.851913 0.851913 1.703827 0.851914 2.55574 0 0.851913 0.851913 1.703827 0.851913 2.555741 0 0.851913 0.851913 1.703827 0.851914 2.55574 0 0.851913 0.851913 1.703827 0.851913 2.555741 0 0.851913 0 1.703827 0.851914 2.55574 0 0.851913 0 1.703827 0.851913 2.55574 0 0.851913 0 1.703827 0.851914 2.555741 0 0.851913 0 1.703827 0.851913 2.55574 0 0.851913 0 1.703827 0.851914 2.555741 0 0.851913 0 1.703827 0.851913 2.55574 0 0.851913 0 1.703827 0.851914 2.555741v1.703827c-5.111481-0.851913-11.074875-0.851913-16.186356-1.703827h-27.261232c-7.667221 0-15.334443 0.851913-23.001664 2.55574-4.259567 0.851913-9.371048 1.703827-13.630615 2.555741l-10.222962 2.55574c-3.407654 0.851913-5.963394 1.703827-8.519135 2.55574l-7.667221 2.555741c-2.55574 0.851913-4.259567 1.703827-6.815308 2.55574-2.55574 0.851913-4.259567 1.703827-6.815308 2.555741-1.703827 0.851913-4.259567 1.703827-5.963394 2.55574l-5.111481 2.555741-5.111481 2.55574-5.111481 2.55574c-1.703827 0.851913-3.407654 1.703827-4.259567 2.555741-1.703827 0.851913-2.55574 1.703827-4.259567 2.55574-1.703827 0.851913-2.55574 1.703827-4.259568 2.555741-1.703827 0.851913-2.55574 1.703827-4.259567 2.55574-1.703827 0.851913-2.55574 1.703827-4.259567 2.555741-0.851913 0.851913-2.55574 1.703827-3.407654 2.55574-0.851913 0.851913-2.55574 1.703827-3.407654 2.55574-0.851913 0.851913-2.55574 1.703827-3.407654 2.555741-0.851913 0.851913-2.55574 1.703827-3.407654 2.55574-0.851913 0.851913-2.55574 1.703827-3.407654 2.555741-0.851913 0.851913-1.703827 1.703827-3.407654 2.55574-0.851913 0.851913-1.703827 1.703827-3.407654 2.555741l-2.55574 2.55574-2.555741 2.55574-2.55574 2.555741-2.555741 2.55574-2.55574 2.555741-2.55574 2.55574-2.555741 2.555741-2.55574 2.55574-2.555741 2.55574-2.55574 2.555741-2.555741 2.55574-2.55574 2.555741-2.55574 2.55574c-0.851913 0.851913-1.703827 1.703827-1.703827 2.555741-0.851913 0.851913-1.703827 1.703827-1.703827 2.55574-0.851913 0.851913-1.703827 1.703827-1.703827 2.555741-0.851913 0.851913-1.703827 1.703827-1.703827 2.55574-0.851913 0.851913-0.851913 1.703827-1.703827 2.55574-0.851913 0.851913-0.851913 1.703827-1.703827 2.555741-0.851913 0.851913-0.851913 1.703827-1.703827 2.55574-0.851913 0.851913-0.851913 1.703827-1.703827 2.555741-0.851913 0.851913-0.851913 1.703827-1.703827 2.55574-0.851913 0.851913-0.851913 1.703827-1.703827 2.555741-0.851913 0.851913-0.851913 1.703827-1.703827 2.55574-0.851913 0.851913-0.851913 1.703827-1.703827 2.55574-0.851913 0.851913-0.851913 1.703827-1.703827 2.555741-0.851913 0.851913-0.851913 1.703827-1.703827 2.55574-0.851913 0.851913-0.851913 1.703827-1.703827 2.555741-0.851913 0.851913-0.851913 1.703827-1.703827 2.55574-0.851913 0.851913-0.851913 1.703827-1.703827 2.555741-0.851913 0.851913-0.851913 1.703827-1.703827 2.55574-0.851913 0.851913-0.851913 1.703827-1.703827 2.55574-0.851913 0.851913-0.851913 1.703827-1.703827 2.555741-0.851913 0.851913-0.851913 1.703827-1.703827 2.55574-0.851913 0.851913-0.851913 1.703827-1.703827 2.555741 0 0.851913-0.851913 1.703827-0.851913 2.55574 0 0.851913-0.851913 1.703827-0.851913 2.555741 0 0.851913-0.851913 1.703827-0.851914 2.55574 0 0.851913-0.851913 1.703827-0.851913 2.55574 0 0.851913-0.851913 1.703827-0.851914 2.555741 0 0.851913-0.851913 1.703827-0.851913 2.55574 0 0.851913-0.851913 1.703827-0.851914 2.555741 0 0.851913-0.851913 1.703827-0.851913 2.55574 0 0.851913-0.851913 1.703827-0.851914 2.555741 0 0.851913-0.851913 1.703827-0.851913 2.55574 0 0.851913-0.851913 1.703827-0.851914 2.555741 0 0.851913-0.851913 1.703827-0.851913 2.55574 0 0.851913-0.851913 1.703827-0.851914 2.55574 0 0.851913-0.851913 1.703827-0.851913 2.555741 0 0.851913-0.851913 1.703827-0.851914 2.55574 0 0.851913-0.851913 1.703827-0.851913 2.555741 0 0.851913-0.851913 1.703827-0.851914 2.55574 0 0.851913-0.851913 1.703827-0.851913 2.555741 0 0.851913-0.851913 1.703827-0.851914 2.55574 0 0.851913-0.851913 1.703827-0.851913 2.55574 0 0.851913-0.851913 1.703827-0.851914 2.555741 0 0.851913-0.851913 1.703827-0.851913 2.55574 0 0.851913-0.851913 1.703827-0.851913 2.555741 0 0.851913 0 1.703827-0.851914 2.55574 0 0.851913 0 1.703827-0.851913 2.555741 0 0.851913 0 1.703827-0.851914 2.55574 0 0.851913 0 1.703827-0.851913 2.55574 0 0.851913 0 1.703827-0.851914 2.555741 0 0.851913 0 1.703827-0.851913 2.55574 0 0.851913 0 1.703827-0.851914 2.555741 0 0.851913 0 1.703827-0.851913 2.55574 0 0.851913 0 1.703827-0.851914 2.555741 0 0.851913 0 1.703827-0.851913 2.55574V745.424293c0 0.851913 0 1.703827 0.851913 2.55574 0 0.851913 0 1.703827 0.851914 2.555741 0 0.851913 0 1.703827 0.851913 2.55574 0 0.851913 0 1.703827 0.851914 2.555741 0 0.851913 0 1.703827 0.851913 2.55574 0 0.851913 0 1.703827 0.851914 2.55574 0 0.851913 0 1.703827 0.851913 2.555741 0 0.851913 0 1.703827 0.851914 2.55574 0 0.851913 0 1.703827 0.851913 2.555741v0.851913c-5.111481 0-10.222962 0.851913-15.334443 0.851914h-24.70549c-8.519135 0-17.03827-0.851913-24.705491-2.555741-5.111481-0.851913-9.371048-1.703827-14.482529-2.55574-4.259567-0.851913-7.667221-1.703827-11.926789-2.555741-3.407654-0.851913-7.667221-1.703827-11.074875-2.55574l-10.222962-2.55574-10.222962-2.555741c-3.407654-0.851913-6.815308-1.703827-10.222961-1.703827l-4.259568 1.703827-4.259567 2.555741-4.259568 2.55574-4.259567 2.55574-4.259567 2.555741-4.259568 2.55574-4.259567 2.555741-4.259568 2.55574-4.259567 2.555741-4.259567 2.55574-4.259568 2.55574-4.259567 2.555741-4.259567 2.55574-4.259568 2.555741-4.259567 2.55574-4.259568 2.555741-4.259567 2.55574-4.259567 2.55574-4.259568 2.555741-4.259567 2.55574-4.259568 2.555741-4.259567 2.55574-4.259567 2.555741-4.259568 2.55574-3.407654 1.703827 0.851914-1.703827 0.851913-2.55574 0.851914-2.555741 0.851913-2.55574 0.851914-2.555741 0.851913-2.55574 0.851914-2.555741 0.851913-2.55574 0.851914-2.55574 0.851913-2.555741 0.851914-2.55574 0.851913-2.555741 0.851914-2.55574 0.851913-2.555741 0.851913-2.55574 0.851914-2.55574 0.851913-2.555741 0.851914-2.55574 0.851913-2.555741 0.851914-2.55574 0.851913-2.555741 0.851914-2.55574 0.851913-2.55574 0.851914-2.555741 0.851913-2.55574 0.851914-2.555741 0.851913-2.55574 0.851914-2.555741 0.851913-2.55574 0.851914-2.55574 0.851913-2.555741 0.851914-2.55574 0.851913-2.555741 0.851914-2.55574 0.851913-2.555741 0.851914-2.55574 0.851913-2.555741 0.851913-2.55574 0.851914-2.55574 0.851913-2.555741 0.851914-2.55574 0.851913-2.555741v-0.851913c-0.851913 0-0.851913-0.851913-0.851913-0.851914-0.851913-0.851913-1.703827-1.703827-3.407654-2.55574l-2.55574-2.555741-2.555741-2.55574-2.55574-2.55574-2.555741-2.555741-2.55574-2.55574-2.555741-2.555741-2.55574-2.55574-2.55574-2.555741-2.555741-2.55574-2.55574-2.55574-2.555741-2.555741-2.55574-2.55574-2.555741-2.555741-2.55574-2.55574-2.55574-2.555741-2.555741-2.55574-2.55574-2.55574-2.555741-2.555741c-0.851913-0.851913-1.703827-1.703827-1.703827-2.55574-0.851913-0.851913-1.703827-1.703827-1.703827-2.555741-0.851913-0.851913-1.703827-1.703827-1.703827-2.55574-0.851913-0.851913-1.703827-1.703827-1.703827-2.555741-0.851913-0.851913-1.703827-1.703827-1.703827-2.55574-0.851913-0.851913-1.703827-1.703827-1.703827-2.55574-0.851913-0.851913-0.851913-1.703827-1.703826-2.555741-0.851913-0.851913-0.851913-1.703827-1.703827-2.55574-0.851913-0.851913-0.851913-1.703827-1.703827-2.555741-0.851913-0.851913-0.851913-1.703827-1.703827-2.55574-0.851913-0.851913-0.851913-1.703827-1.703827-2.555741-0.851913-0.851913-0.851913-1.703827-1.703827-2.55574-0.851913-0.851913-0.851913-1.703827-1.703827-2.55574-0.851913-0.851913-0.851913-1.703827-1.703827-2.555741-0.851913-0.851913-0.851913-1.703827-1.703827-2.55574-0.851913-0.851913-0.851913-1.703827-1.703827-2.555741-0.851913-0.851913-0.851913-1.703827-1.703827-2.55574-0.851913-0.851913-0.851913-1.703827-1.703827-2.555741-0.851913-0.851913-0.851913-1.703827-1.703827-2.55574-0.851913-0.851913-0.851913-1.703827-1.703827-2.555741-0.851913-0.851913-0.851913-1.703827-1.703827-2.55574-0.851913-0.851913-0.851913-1.703827-1.703827-2.55574-0.851913-0.851913-0.851913-1.703827-1.703827-2.555741-0.851913-0.851913-0.851913-1.703827-1.703827-2.55574 0-0.851913-0.851913-1.703827-0.851913-2.555741 0-0.851913-0.851913-1.703827-0.851914-2.55574 0-0.851913-0.851913-1.703827-0.851913-2.555741 0-0.851913-0.851913-1.703827-0.851914-2.55574 0-0.851913-0.851913-1.703827-0.851913-2.55574 0-0.851913-0.851913-1.703827-0.851914-2.555741 0-0.851913-0.851913-1.703827-0.851913-2.55574 0-0.851913-0.851913-1.703827-0.851914-2.555741 0-0.851913-0.851913-1.703827-0.851913-2.55574 0-0.851913-0.851913-1.703827-0.851913-2.555741 0-0.851913-0.851913-1.703827-0.851914-2.55574 0-0.851913-0.851913-1.703827-0.851913-2.55574 0-0.851913-0.851913-1.703827-0.851914-2.555741 0-0.851913-0.851913-1.703827-0.851913-2.55574 0-0.851913-0.851913-1.703827-0.851914-2.555741 0-0.851913-0.851913-1.703827-0.851913-2.55574 0-0.851913-0.851913-1.703827-0.851914-2.555741 0-0.851913-0.851913-1.703827-0.851913-2.55574 0-0.851913-0.851913-1.703827-0.851914-2.55574 0-0.851913-0.851913-1.703827-0.851913-2.555741 0-0.851913-0.851913-1.703827-0.851914-2.55574 0-0.851913-0.851913-1.703827-0.851913-2.555741 0-0.851913-0.851913-1.703827-0.851914-2.55574 0-0.851913-0.851913-1.703827-0.851913-2.555741 0-0.851913 0-1.703827-0.851914-2.55574 0-0.851913 0-1.703827-0.851913-2.55574 0-0.851913 0-1.703827-0.851914-2.555741 0-0.851913 0-1.703827-0.851913-2.55574 0-0.851913 0-1.703827-0.851914-2.555741 0-0.851913 0-1.703827-0.851913-2.55574 0-0.851913 0-1.703827-0.851914-2.555741 0-0.851913 0-1.703827-0.851913-2.55574v-2.555741-2.55574-2.55574-2.555741-2.55574-2.555741-2.55574-2.555741-2.55574-2.55574-2.555741-2.55574-2.555741-2.55574-2.555741-2.55574-2.55574-2.555741-2.55574-0.851914-0.851913-2.555741-2.55574-2.555741-2.55574-2.55574-2.555741-2.55574-2.555741-2.55574-2.555741-2.55574-2.55574-2.555741-2.55574-2.555741-2.55574-2.555741-2.55574-2.55574-2.555741-2.55574c0-0.851913 0-1.703827 0.851913-2.555741 0-0.851913 0-1.703827 0.851914-2.55574 0-0.851913 0-1.703827 0.851913-2.555741 0-0.851913 0-1.703827 0.851914-2.55574s0-1.703827 0.851913-2.555741c0-0.851913 0-1.703827 0.851914-2.55574 0-0.851913 0-1.703827 0.851913-2.55574 0-0.851913 0-1.703827 0.851914-2.555741 0-0.851913 0-1.703827 0.851913-2.55574 0-0.851913 0.851913-1.703827 0.851914-2.555741 0-0.851913 0.851913-1.703827 0.851913-2.55574 0-0.851913 0.851913-1.703827 0.851914-2.555741 0-0.851913 0.851913-1.703827 0.851913-2.55574 0-0.851913 0.851913-1.703827 0.851914-2.55574 0-0.851913 0.851913-1.703827 0.851913-2.555741 0-0.851913 0.851913-1.703827 0.851914-2.55574 0-0.851913 0.851913-1.703827 0.851913-2.555741 0-0.851913 0.851913-1.703827 0.851914-2.55574 0-0.851913 0.851913-1.703827 0.851913-2.555741 0-0.851913 0.851913-1.703827 0.851914-2.55574 0-0.851913 0.851913-1.703827 0.851913-2.55574 0-0.851913 0.851913-1.703827 0.851914-2.555741 0-0.851913 0.851913-1.703827 0.851913-2.55574 0-0.851913 0.851913-1.703827 0.851913-2.555741 0-0.851913 0.851913-1.703827 0.851914-2.55574 0-0.851913 0.851913-1.703827 0.851913-2.555741 0-0.851913 0.851913-1.703827 0.851914-2.55574 0-0.851913 0.851913-1.703827 0.851913-2.55574 0-0.851913 0.851913-1.703827 0.851914-2.555741 0-0.851913 0.851913-1.703827 0.851913-2.55574 0-0.851913 0.851913-1.703827 0.851914-2.555741 0-0.851913 0.851913-1.703827 0.851913-2.55574 0-0.851913 0.851913-1.703827 0.851914-2.555741 0.851913-0.851913 0.851913-1.703827 1.703827-2.55574 0.851913-0.851913 0.851913-1.703827 1.703827-2.55574 0.851913-0.851913 0.851913-1.703827 1.703827-2.555741 0.851913-0.851913 0.851913-1.703827 1.703827-2.55574 0.851913-0.851913 0.851913-1.703827 1.703827-2.555741 0.851913-0.851913 0.851913-1.703827 1.703826-2.55574 0.851913-0.851913 0.851913-1.703827 1.703827-2.555741 0.851913-0.851913 0.851913-1.703827 1.703827-2.55574 0.851913-0.851913 0.851913-1.703827 1.703827-2.555741 0.851913-0.851913 0.851913-1.703827 1.703827-2.55574 0.851913-0.851913 0.851913-1.703827 1.703827-2.55574 0.851913-0.851913 0.851913-1.703827 1.703827-2.555741 0.851913-0.851913 0.851913-1.703827 1.703827-2.55574 0.851913-0.851913 0.851913-1.703827 1.703827-2.555741 0.851913-0.851913 0.851913-1.703827 1.703827-2.55574 0.851913-0.851913 0.851913-1.703827 1.703827-2.555741 0.851913-0.851913 0.851913-1.703827 1.703827-2.55574 0.851913-0.851913 0.851913-1.703827 1.703827-2.55574 0.851913-0.851913 1.703827-1.703827 1.703827-2.555741 0.851913-0.851913 1.703827-1.703827 1.703827-2.55574 0.851913-0.851913 1.703827-1.703827 1.703827-2.555741 0.851913-0.851913 1.703827-1.703827 1.703827-2.55574l2.55574-2.555741 2.555741-2.55574 2.55574-2.55574 2.555741-2.555741 2.55574-2.55574 2.55574-2.555741 2.555741-2.55574 2.55574-2.555741 2.555741-2.55574 2.55574-2.55574 2.555741-2.555741 2.55574-2.55574 2.55574-2.555741 2.555741-2.55574c0.851913-0.851913 1.703827-1.703827 3.407654-2.555741 0.851913-0.851913 1.703827-1.703827 3.407654-2.55574 0.851913-0.851913 1.703827-1.703827 3.407654-2.55574 0.851913-0.851913 1.703827-1.703827 3.407653-2.555741 0.851913-0.851913 2.55574-1.703827 3.407654-2.55574 0.851913-0.851913 2.55574-1.703827 3.407654-2.555741 0.851913-0.851913 2.55574-1.703827 3.407654-2.55574 0.851913-0.851913 2.55574-1.703827 3.407654-2.555741 0.851913-0.851913 2.55574-1.703827 3.407654-2.55574 1.703827-0.851913 2.55574-1.703827 4.259567-2.555741 1.703827-0.851913 2.55574-1.703827 4.259568-2.55574 1.703827-0.851913 2.55574-1.703827 4.259567-2.55574 1.703827-0.851913 2.55574-1.703827 4.259568-2.555741 1.703827-0.851913 2.55574-1.703827 4.259567-2.55574 1.703827-0.851913 3.407654-1.703827 4.259567-2.555741l5.111481-2.55574 5.111481-2.555741 5.111481-2.55574c1.703827-0.851913 3.407654-1.703827 5.963394-2.55574 1.703827-0.851913 4.259567-1.703827 5.963395-2.555741 1.703827-0.851913 4.259567-1.703827 5.963394-2.55574 2.55574-0.851913 4.259567-1.703827 6.815308-2.555741l7.667221-2.55574 7.667221-2.555741c2.55574-0.851913 5.963394-1.703827 8.519135-2.55574l10.222962-2.55574c4.259567-0.851913 7.667221-1.703827 11.926789-2.555741-3.407654-0.851913 1.703827-1.703827 6.815307-2.55574z m253.018303 346.728785c-15.334443 0-30.668885 15.334443-30.668885 30.668885s15.334443 30.668885 30.668885 30.668885c23.001664 0 38.336106-15.334443 38.336107-30.668885 0-16.186356-15.334443-30.668885-38.336107-30.668885z m166.975042 0c-15.334443 0-29.816972 15.334443-29.816972 30.668885s15.334443 30.668885 29.816972 30.668885c23.001664 0 38.336106-15.334443 38.336106-30.668885-0.851913-16.186356-16.186356-30.668885-38.336106-30.668885z m-477.071548-219.793677c-23.001664 0-46.003328 15.334443-46.003327 37.484193 0 23.001664 23.001664 38.336106 46.003327 38.336106s37.484193-15.334443 37.484193-38.336106-15.334443-37.484193-37.484193-37.484193z m212.126456 75.820299c23.001664 0 38.336106-15.334443 38.336107-38.336106s-15.334443-37.484193-38.336107-37.484193-45.151414 15.334443-45.151414 37.484193c-0.851913 23.001664 22.14975 38.336106 45.151414 38.336106z m-9.371048 93.710483c0.851913-0.851913 1.703827-0.851913 1.703827-1.703827 0.851913-0.851913 1.703827-0.851913 1.703827-1.703827 0.851913-0.851913 1.703827-0.851913 1.703827-1.703827 0.851913-0.851913 1.703827-0.851913 1.703827-1.703827 0.851913-0.851913 1.703827-0.851913 2.55574-1.703827 0.851913-0.851913 1.703827-0.851913 2.555741-1.703827 0.851913-0.851913 1.703827-0.851913 2.55574-1.703827 0.851913-0.851913 1.703827-0.851913 2.555741-1.703827 0.851913-0.851913 1.703827-0.851913 2.55574-1.703827 0.851913-0.851913 1.703827-0.851913 2.55574-1.703827 0.851913-0.851913 1.703827-0.851913 2.555741-1.703827 0.851913-0.851913 1.703827-0.851913 2.55574-1.703827 0.851913-0.851913 1.703827-0.851913 2.555741-1.703827 0.851913-0.851913 1.703827-0.851913 2.55574-1.703827 0.851913-0.851913 1.703827-0.851913 2.555741-1.703826 0.851913-0.851913 1.703827-0.851913 2.55574-1.703827 0.851913-0.851913 1.703827-0.851913 2.555741-1.703827 0.851913-0.851913 1.703827-0.851913 3.407653-1.703827 0.851913-0.851913 1.703827-0.851913 3.407654-1.703827 0.851913-0.851913 2.55574-0.851913 3.407654-1.703827 0.851913-0.851913 2.55574-0.851913 3.407654-1.703827 0.851913-0.851913 2.55574-0.851913 3.407654-1.703827 0.851913-0.851913 2.55574-0.851913 3.407654-1.703827 0.851913-0.851913 2.55574-0.851913 3.407654-1.703827 1.703827-0.851913 2.55574-0.851913 4.259567-1.703827s2.55574-0.851913 4.259568-1.703827 2.55574-0.851913 4.259567-1.703827 3.407654-0.851913 4.259567-1.703827c1.703827-0.851913 3.407654-0.851913 5.111481-1.703827 1.703827-0.851913 3.407654-0.851913 5.111481-1.703827 1.703827-0.851913 3.407654-0.851913 5.111481-1.703827 1.703827-0.851913 3.407654-0.851913 5.963394-1.703827 1.703827-0.851913 4.259567-0.851913 5.963395-1.703827 2.55574-0.851913 4.259567-0.851913 6.815308-1.703827 2.55574-0.851913 5.111481-0.851913 7.667221-1.703827 2.55574-0.851913 5.963394-0.851913 8.519135-1.703827 3.407654-0.851913 6.815308-0.851913 10.222961-1.703826 4.259567-0.851913 8.519135-1.703827 13.630616-1.703827 11.074875-1.703827 23.001664-1.703827 34.076539-1.703827h1.703827c11.074875 0 22.14975 0.851913 32.372712 1.703827 4.259567 0.851913 8.519135 0.851913 12.778702 1.703827 3.407654 0.851913 6.815308 0.851913 10.222962 1.703826 2.55574 0.851913 5.963394 0.851913 8.519135 1.703827 2.55574 0.851913 5.111481 0.851913 7.667221 1.703827 2.55574 0.851913 4.259567 0.851913 6.815308 1.703827 1.703827 0.851913 4.259567 0.851913 5.963394 1.703827 1.703827 0.851913 3.407654 0.851913 5.963395 1.703827 1.703827 0.851913 3.407654 0.851913 5.111481 1.703827 1.703827 0.851913 3.407654 0.851913 5.11148 1.703827 1.703827 0.851913 3.407654 0.851913 5.111481 1.703827 1.703827 0.851913 3.407654 0.851913 4.259568 1.703827 1.703827 0.851913 2.55574 0.851913 4.259567 1.703827s2.55574 0.851913 4.259567 1.703827 2.55574 0.851913 4.259568 1.703827c0.851913 0.851913 2.55574 0.851913 3.407654 1.703827 0.851913 0.851913 2.55574 0.851913 3.407654 1.703827 0.851913 0.851913 2.55574 0.851913 3.407654 1.703827 0.851913 0.851913 2.55574 0.851913 3.407653 1.703827 0.851913 0.851913 2.55574 0.851913 3.407654 1.703827 0.851913 0.851913 1.703827 0.851913 3.407654 1.703827 0.851913 0.851913 1.703827 0.851913 3.407654 1.703827 0.851913 0.851913 1.703827 0.851913 2.555741 1.703827 0.851913 0.851913 1.703827 0.851913 2.55574 1.703827 0.851913 0.851913 1.703827 0.851913 2.55574 1.703826 0.851913 0.851913 1.703827 0.851913 2.555741 1.703827 0.851913 0.851913 1.703827 0.851913 2.55574 1.703827 0.851913 0.851913 1.703827 0.851913 2.555741 1.703827 0.851913 0.851913 1.703827 0.851913 2.55574 1.703827 0.851913 0.851913 1.703827 0.851913 2.555741 1.703827 0.851913 0.851913 1.703827 0.851913 2.55574 1.703827 0.851913 0.851913 1.703827 0.851913 2.55574 1.703827 0.851913 0.851913 1.703827 0.851913 2.555741 1.703827 0.851913 0.851913 1.703827 0.851913 2.55574 1.703827 0.851913 0.851913 1.703827 0.851913 2.555741 1.703827 0.851913 0.851913 1.703827 0.851913 2.55574 1.703827 0.851913 0.851913 1.703827 0.851913 1.703827 1.703827 0.851913 0.851913 1.703827 0.851913 1.703827 1.703827 0.851913 0.851913 1.703827 0.851913 1.703827 1.703827 0.851913 0.851913 1.703827 0.851913 1.703827 1.703827 0.851913 0.851913 1.703827 0.851913 1.703827 1.703827l1.703827 1.703827 1.703827 1.703827 1.703827 1.703827 1.703827 1.703827 1.703827 1.703827 1.703827 1.703827 1.703827 1.703826 1.703827 1.703827 1.703827 1.703827 1.703827 1.703827 1.703827 1.703827 1.703826 1.703827 1.703827 1.703827 1.703827 1.703827 1.703827 1.703827 1.703827 1.703827 1.703827 1.703827 1.703827 1.703827 1.703827 1.703827c0 0.851913 0.851913 0.851913 0.851914 1.703827s0.851913 0.851913 0.851913 1.703827 0.851913 0.851913 0.851914 1.703827 0.851913 0.851913 0.851913 1.703827 0.851913 0.851913 0.851914 1.703827 0.851913 0.851913 0.851913 1.703827 0.851913 0.851913 0.851913 1.703827 0.851913 0.851913 0.851914 1.703827 0.851913 0.851913 0.851913 1.703827 0.851913 0.851913 0.851914 1.703826 0.851913 0.851913 0.851913 1.703827 0.851913 0.851913 0.851914 1.703827 0.851913 0.851913 0.851913 1.703827 0.851913 0.851913 0.851914 1.703827 0.851913 0.851913 0.851913 1.703827 0.851913 0.851913 0.851914 1.703827 0.851913 0.851913 0.851913 1.703827 0.851913 0.851913 0.851914 1.703827 0.851913 0.851913 0.851913 1.703827 0.851913 0.851913 0.851914 1.703827 0.851913 0.851913 0.851913 1.703827 0.851913 0.851913 0.851914 1.703827 0.851913 0.851913 0.851913 1.703827 0.851913 0.851913 0.851914 1.703827 0.851913 0.851913 0.851913 1.703827 0.851913 0.851913 0.851914 1.703827 0.851913 0.851913 0.851913 1.703827 0 0.851913 0.851914 1.703827c0 0.851913 0 0.851913 0.851913 1.703827 0 0.851913 0 0.851913 0.851913 1.703827 0 0.851913 0 0.851913 0.851914 1.703827 0 0.851913 0 0.851913 0.851913 1.703826 0 0.851913 0 0.851913 0.851914 1.703827 0 0.851913 0 0.851913 0.851913 1.703827 0 0.851913 0 0.851913 0.851914 1.703827 0 0.851913 0 0.851913 0.851913 1.703827 0 0.851913 0 0.851913 0.851914 1.703827 0 0.851913 0 0.851913 0.851913 1.703827V631.267887c0 0.851913 0 0.851913-0.851913 1.703827 0 0.851913 0 0.851913-0.851914 1.703827 0 0.851913 0 0.851913-0.851913 1.703827 0 0.851913 0 0.851913-0.851914 1.703827 0 0.851913 0 0.851913-0.851913 1.703827 0 0.851913 0 0.851913-0.851914 1.703827 0 0.851913 0 0.851913-0.851913 1.703827 0 0.851913 0 0.851913-0.851914 1.703826 0 0.851913 0 0.851913-0.851913 1.703827 0 0.851913 0 0.851913-0.851913 1.703827 0 0.851913-0.851913 0.851913-0.851914 1.703827s-0.851913 0.851913-0.851913 1.703827-0.851913 0.851913-0.851914 1.703827-0.851913 0.851913-0.851913 1.703827-0.851913 0.851913-0.851914 1.703827-0.851913 0.851913-0.851913 1.703827-0.851913 0.851913-0.851914 1.703827-0.851913 0.851913-0.851913 1.703827-0.851913 0.851913-0.851914 1.703827-0.851913 0.851913-0.851913 1.703827-0.851913 0.851913-0.851914 1.703827-0.851913 0.851913-0.851913 1.703827-0.851913 0.851913-0.851914 1.703827-0.851913 0.851913-0.851913 1.703827-0.851913 0.851913-0.851914 1.703827-0.851913 0.851913-0.851913 1.703827-0.851913 0.851913-0.851914 1.703827-0.851913 0.851913-0.851913 1.703827-0.851913 0.851913-0.851914 1.703827-0.851913 0.851913-0.851913 1.703827-0.851913 0.851913-0.851914 1.703826-0.851913 0.851913-0.851913 1.703827-0.851913 0.851913-0.851913 1.703827-0.851913 0.851913-0.851914 1.703827-0.851913 0.851913-0.851913 1.703827-0.851913 0.851913-0.851914 1.703827-0.851913 0.851913-0.851913 1.703827-0.851913 0.851913-1.703827 1.703827l-1.703827 1.703827-1.703827 1.703827-1.703827 1.703827-1.703827 1.703827-1.703827 1.703827-1.703827 1.703827-1.703827 1.703827-1.703827 1.703827-1.703827 1.703827-1.703827 1.703827-1.703827 1.703827-1.703827 1.703827-1.703827 1.703827-1.703827 1.703827-1.703827 1.703826-1.703827 1.703827-1.703827 1.703827-1.703827 1.703827-1.703826 1.703827-1.703827 1.703827-1.703827 1.703827-1.703827 1.703827-1.703827 1.703827c-0.851913 0.851913-1.703827 0.851913-1.703827 1.703827-0.851913 0.851913-1.703827 0.851913-1.703827 1.703827-0.851913 0.851913-1.703827 0.851913-1.703827 1.703827-0.851913 0.851913-1.703827 0.851913-1.703827 1.703827-0.851913 0.851913-1.703827 0.851913-1.703827 1.703827-0.851913 0.851913-1.703827 0.851913-1.703827 1.703827-0.851913 0.851913-1.703827 0.851913-1.703827 1.703827-0.851913 0.851913-1.703827 0.851913-2.55574 1.703827-0.851913 0.851913-1.703827 0.851913-2.555741 1.703827-0.851913 0.851913-1.703827 0.851913-2.55574 1.703827-0.851913 0.851913-1.703827 0.851913-2.555741 1.703827-0.851913 0.851913-1.703827 0.851913-2.55574 1.703827-0.851913 0.851913-1.703827 0.851913-2.555741 1.703827-0.851913 0.851913-1.703827 0.851913-2.55574 1.703826-0.851913 0.851913-1.703827 0.851913-2.55574 1.703827l-0.851914 0.851914v0.851913l0.851914 1.703827 0.851913 1.703827 0.851914 1.703827 0.851913 1.703827 0.851913 1.703827 0.851914 1.703827 0.851913 1.703827 0.851914 1.703827 0.851913 1.703827 0.851914 1.703827 0.851913 1.703827 0.851914 1.703827 0.851913 1.703827 0.851914 1.703827 0.851913 1.703827 0.851914 1.703827 0.851913 1.703827 0.851914 1.703827 0.851913 1.703827 0.851914 1.703826 0.851913 1.703827 0.851914 1.703827 0.851913 1.703827 0.851914 1.703827 0.851913 1.703827 0.851913 1.703827 0.851914 1.703827 0.851913 1.703827 0.851914 1.703827 0.851913 1.703827 0.851914 1.703827 0.851913 1.703827 0.851914 1.703827 0.851913 1.703827 0.851914 1.703827 0.851913 1.703827 0.851914 1.703827 0.851913 1.703827 0.851914 1.703827 0.851913 1.703827v1.703827l-2.55574-1.703827-3.407654-1.703827-3.407654-1.703827-3.407654-1.703827-3.407654-1.703827-3.407654-1.703827-3.407654-1.703827-3.407654-1.703827-3.407654-1.703827-3.407653-1.703827-3.407654-1.703827-3.407654-1.703827-3.407654-1.703827-3.407654-1.703827-3.407654-1.703827-3.407654-1.703827-3.407654-1.703827-3.407654-1.703827-3.407654-1.703827-3.407654-1.703827-3.407653-1.703827-3.407654-1.703826-3.407654-1.703827-3.407654-1.703827-3.407654-1.703827h-1.703827c-2.55574 0.851913-5.111481 0.851913-7.667221 1.703827-2.55574 0.851913-5.111481 0.851913-7.667222 1.703827-2.55574 0.851913-5.111481 0.851913-7.667221 1.703827-2.55574 0.851913-5.111481 0.851913-7.667221 1.703826-2.55574 0.851913-5.963394 0.851913-8.519135 1.703827-3.407654 0.851913-6.815308 0.851913-9.371048 1.703827-4.259567 0.851913-7.667221 1.703827-11.926789 1.703827-5.963394 0.851913-12.778702 1.703827-18.742096 1.703827h-23.853578c-7.667221 0-15.334443-0.851913-23.001664-1.703827-4.259567-0.851913-8.519135-0.851913-12.778702-1.703827-3.407654-0.851913-6.815308-0.851913-10.222962-1.703827-2.55574-0.851913-5.963394-0.851913-8.519134-1.703827-2.55574-0.851913-5.111481-0.851913-7.667222-1.703826-2.55574-0.851913-4.259567-0.851913-6.815308-1.703827-1.703827-0.851913-4.259567-0.851913-5.963394-1.703827-1.703827-0.851913-3.407654-0.851913-5.963394-1.703827-1.703827-0.851913-3.407654-0.851913-5.111481-1.703827-1.703827-0.851913-3.407654-0.851913-5.111481-1.703827-1.703827-0.851913-3.407654-0.851913-5.111481-1.703827-1.703827-0.851913-3.407654-0.851913-4.259567-1.703827-1.703827-0.851913-2.55574-0.851913-4.259568-1.703827s-2.55574-0.851913-4.259567-1.703827-2.55574-0.851913-4.259567-1.703827c-0.851913-0.851913-2.55574-0.851913-3.407654-1.703827-0.851913-0.851913-2.55574-0.851913-3.407654-1.703827-0.851913-0.851913-2.55574-0.851913-3.407654-1.703827-0.851913-0.851913-2.55574-0.851913-3.407654-1.703827-0.851913-0.851913-2.55574-0.851913-3.407654-1.703827-0.851913-0.851913-1.703827-0.851913-3.407654-1.703827-0.851913-0.851913-1.703827-0.851913-3.407654-1.703827-0.851913-0.851913-1.703827-0.851913-2.55574-1.703827-0.851913-0.851913-1.703827-0.851913-2.555741-1.703827-0.851913-0.851913-1.703827-0.851913-2.55574-1.703827-0.851913-0.851913-1.703827-0.851913-2.55574-1.703827-0.851913-0.851913-1.703827-0.851913-2.555741-1.703826-0.851913-0.851913-1.703827-0.851913-2.55574-1.703827-0.851913-0.851913-1.703827-0.851913-2.555741-1.703827-0.851913-0.851913-1.703827-0.851913-2.55574-1.703827-0.851913-0.851913-1.703827-0.851913-2.555741-1.703827-0.851913-0.851913-1.703827-0.851913-2.55574-1.703827-0.851913-0.851913-1.703827-0.851913-2.55574-1.703827-0.851913-0.851913-1.703827-0.851913-2.555741-1.703827-0.851913-0.851913-1.703827-0.851913-2.55574-1.703827-0.851913-0.851913-1.703827-0.851913-1.703827-1.703827s-1.703827-0.851913-1.703827-1.703827c-0.851913-0.851913-1.703827-0.851913-1.703827-1.703827-0.851913-0.851913-1.703827-0.851913-1.703827-1.703827l-1.703827-1.703827-1.703827-1.703827-1.703827-1.703827-1.703827-1.703827-1.703827-1.703827-1.703827-1.703827-1.703827-1.703827-1.703827-1.703827-1.703827-1.703827-1.703827-1.703826-1.703827-1.703827-1.703827-1.703827-1.703827-1.703827-1.703827-1.703827-1.703826-1.703827-1.703827-1.703827-1.703827-1.703827-1.703827-1.703827-1.703827-1.703827c0-0.851913-0.851913-0.851913-0.851914-1.703827s-0.851913-0.851913-0.851913-1.703827-0.851913-0.851913-0.851914-1.703827-0.851913-0.851913-0.851913-1.703827-0.851913-0.851913-0.851914-1.703827-0.851913-0.851913-0.851913-1.703827-0.851913-0.851913-0.851914-1.703827-0.851913-0.851913-0.851913-1.703827-0.851913-0.851913-0.851914-1.703827-0.851913-0.851913-0.851913-1.703827-0.851913-0.851913-0.851914-1.703827-0.851913-0.851913-0.851913-1.703827-0.851913-0.851913-0.851914-1.703826-0.851913-0.851913-0.851913-1.703827-0.851913-0.851913-0.851913-1.703827-0.851913-0.851913-0.851914-1.703827-0.851913-0.851913-0.851913-1.703827-0.851913-0.851913-0.851914-1.703827-0.851913-0.851913-0.851913-1.703827-0.851913-0.851913-0.851914-1.703827-0.851913-0.851913-0.851913-1.703827-0.851913-0.851913-0.851914-1.703827-0.851913-0.851913-0.851913-1.703827-0.851913-0.851913-0.851914-1.703827-0.851913-0.851913-0.851913-1.703827-0.851913-0.851913-0.851914-1.703827-0.851913-0.851913-0.851913-1.703827 0-0.851913-0.851914-1.703827c0-0.851913-0.851913-0.851913-0.851913-1.703827s0-0.851913-0.851914-1.703827c0-0.851913 0-0.851913-0.851913-1.703827 0-0.851913 0-0.851913-0.851914-1.703827 0-0.851913 0-0.851913-0.851913-1.703827 0-0.851913 0-0.851913-0.851914-1.703827 0-0.851913 0-0.851913-0.851913-1.703827 0-0.851913 0-0.851913-0.851914-1.703826 0-0.851913 0-0.851913-0.851913-1.703827 0-0.851913 0-0.851913-0.851913-1.703827v-1.703827-1.703827-1.703827-1.703827-1.703827-1.703827-1.703827-1.703827-1.703827-1.703827-1.703827-1.703827-1.703827-1.703827-1.703827-1.703827-1.703827-1.703827-3.407653-1.703827-3.407654-1.703827-1.703827-1.703827-1.703827-1.703827-1.703827-1.703827-1.703827-1.703827-1.703827-1.703827-1.703827-1.703827-1.703827-1.703827-1.703827-1.703827-1.703827-1.703826-1.703827-1.703827-1.703827-1.703827-1.703827-1.703827c0-0.851913 0-0.851913 0.851913-1.703827 0-0.851913 0-0.851913 0.851913-1.703827 0-0.851913 0-0.851913 0.851914-1.703827 0-0.851913 0-0.851913 0.851913-1.703827 0-0.851913 0-0.851913 0.851914-1.703827 0-0.851913 0-0.851913 0.851913-1.703827 0-0.851913 0-0.851913 0.851914-1.703827 0-0.851913 0-0.851913 0.851913-1.703827 0-0.851913 0-0.851913 0.851914-1.703827 0-0.851913 0-0.851913 0.851913-1.703827 0-0.851913 0-0.851913 0.851914-1.703827 0-0.851913 0.851913-0.851913 0.851913-1.703827s0.851913-0.851913 0.851914-1.703827 0.851913-0.851913 0.851913-1.703827 0.851913-0.851913 0.851914-1.703827 0.851913-0.851913 0.851913-1.703826 0.851913-0.851913 0.851914-1.703827 0.851913-0.851913 0.851913-1.703827 0.851913-0.851913 0.851914-1.703827 0.851913-0.851913 0.851913-1.703827 0.851913-0.851913 0.851914-1.703827 0.851913-0.851913 0.851913-1.703827 0.851913-0.851913 0.851914-1.703827 0.851913-0.851913 0.851913-1.703827 0.851913-0.851913 0.851913-1.703827 0.851913-0.851913 0.851914-1.703827 0.851913-0.851913 0.851913-1.703827 0.851913-0.851913 0.851914-1.703827 0.851913-0.851913 0.851913-1.703827 0.851913-0.851913 0.851914-1.703827 0.851913-0.851913 0.851913-1.703827 0.851913-0.851913 0.851914-1.703827 0.851913-0.851913 0.851913-1.703827 0.851913-0.851913 0.851914-1.703827 0.851913-0.851913 0.851913-1.703827 0.851913-0.851913 0.851914-1.703827 0.851913-0.851913 0.851913-1.703827 0.851913-0.851913 0.851914-1.703827l1.703827-1.703826 1.703827-1.703827 1.703827-1.703827 1.703827-1.703827 1.703826-1.703827 1.703827-1.703827 1.703827-1.703827 1.703827-1.703827 1.703827-1.703827 1.703827-1.703827 1.703827-1.703827 1.703827-1.703827 1.703827-1.703827 1.703827-1.703827 1.703827-1.703827 1.703827-1.703827 1.703827-1.703827 1.703827-1.703827c-7.667221-0.851913-6.815308-1.703827-6.815308-2.55574z" fill="#FFFFFF" p-id="10666"></path></svg>