<?xml version="1.0" standalone="no"?><!DOCTYPE svg PUBLIC "-//W3C//DTD SVG 1.1//EN" "http://www.w3.org/Graphics/SVG/1.1/DTD/svg11.dtd"><svg t="1623847514377" class="icon" viewBox="0 0 2902 1024" version="1.1" xmlns="http://www.w3.org/2000/svg" p-id="11476" xmlns:xlink="http://www.w3.org/1999/xlink" width="566.796875" height="200"><defs><style type="text/css"></style></defs><path d="M249.585 556.245c-25.662 2.538-73.827 13.874-100.165 37.092-78.959 68.619-31.715 194.125 128.045 194.125 92.851 0 185.665-59.219 258.552-153.988-103.662-50.458-191.532-86.572-286.432-77.229z m595.912 86.723c147.878 49.387 181.417 52.038 181.417 52.038v-530.96C1026.914 73.432 953.351 0 862.474 0H164.496C73.601 0 0 73.432 0 164.046v695.927C0 950.55 73.6 1024 164.497 1024h697.976c90.878 0 164.441-73.432 164.441-164.027v-6.712S759.808 742.231 624.92 677.56c-90.445 110.956-207.153 178.334-328.299 178.334-204.897 0-274.475-178.785-177.469-296.49 21.169-25.624 57.151-50.138 113.005-63.88 87.344-21.395 226.405 13.366 356.706 56.248 23.424-43.07 43.145-90.464 57.846-140.96H245.11v-40.57h207.06v-72.698H201.382v-40.589H452.17V153.236s0-17.483 17.766-17.483h101.198v121.201h247.968v40.589H571.134v72.698h202.417c-19.364 79.11-48.804 151.939-85.708 215.877 61.418 22.146 116.577 43.145 157.654 56.85z m1643.092-482.437h293.971v58.185h104.977v-68.939c-0.037-0.17-0.037-0.226-0.037-0.414 0-15.49-12.145-28.03-27.184-28.293h-169.912V66.814h-109.865v54.256h-196.927v97.646h104.977V160.53z m-635.993-88.697L1744.95 326.4h82.568v302.938h90.295V227.514h-32.692l68.017-155.68h-100.54z m1046.992 543.592l-32.993-111.406c-2.162-7.107-8.63-12.258-16.262-12.277h-87.4l25.323 85.577h-102.759V411.58h201.815v-39.479h-201.815v-78h201.815v-39.46h-503.7v39.46h201.796v78h-201.796v39.48h201.796V577.32h-201.796v39.479h515.976l-0.414-1.354h0.414v-0.019zM2083.513 280.51c-3.44-6.993-10.453-11.825-18.574-11.881h-78.17l60.874 191.756h92.494l-56.624-179.875z m197.885-204.052h-93.848v98.06h-231.292v39.46h231.292v352.513c-0.808 8.046-7.163 14.363-15.152 14.776h-47.676v40.852h121.615c19.232-0.808 34.647-16.788 35.061-36.565V213.978h38.107v-39.46h-38.107v-98.06z m-585.554 178.635h-180.27v-64.596h209.015v-40.231h-209.015V68.412h-93.171l-0.019 0.019c-10.208 0-18.461 8.535-18.461 19.1v62.735h-207.549v40.231h207.549v64.596h-175.176v40.212h348.922s-19.326 75.481-115.035 156.62c-85.745-64.915-114.415-116.614-114.415-116.614h-93.603c37.862 65.63 91.686 118.194 149.626 159.891-53.221 34.592-122.254 67.943-211.515 94.6v48.184s137.708-25.981 270.79-104.395c133.29 77.794 267.163 104.395 267.163 104.395v-45.608c-85.67-31.189-153.556-65.48-206.872-98.585 77.248-57.17 144.908-134.832 172.036-238.7z m-295.85 643.306l15.585 47.056h43.69l-86.046-233.643h-33.407l-85.727 233.643h43.71l16.261-47.056h85.934z m-42.262-126.371l32.317 96.893h-65.8l33.483-96.893z m239.395-60.216v233.643h141.449v-31.81h-99.432V711.813h-42.017z m295.606 0h42.055v233.624h-42.055V711.812z m303.22 0h-90.802v233.643h42.017v-89.806h48.786c45.307 0 76.965-29.572 76.965-71.909s-31.658-71.928-76.965-71.928z m-2.35 111.727h-46.435v-79.936h46.436c23.311 0 37.242 20.397 37.242 40.137 0 19.289-13.047 39.799-37.242 39.799z m326.1 74.86l15.585 47.056h43.69l-86.065-233.643h-33.388L2373.8 945.455h43.728l16.224-47.056h85.952z m-42.262-126.371l32.317 96.893h-65.8l33.483-96.893z m335.63-60.216l-45.851 99.545-46.53-99.545h-45.42l70.743 137.67v95.973h41.717v-95.972l0.263-0.527 70.499-137.144h-45.42z" fill="#25ABEE" p-id="11477"></path></svg>